# xmcd
#
# Track frame offsets: 
#        150
#        10899
#        26621
#        45023
#        60746
#        75721
#        89293
#        109255
#        123409
#        145667
#        168399
#        202865
#        212745
#
# Disc length: 3033 seconds
#
# Revision: 0
# Processed by: cddbd v1.5.2PL0 Copyright (c) Steve Scherf et al.
# Submitted via: ExactAudioCopy v1.2
#
DISCID=a10bd70d
DTITLE=Big Head Blues Club - Way Down Inside: Songs Of Willie Dixon
DYEAR=2016
DGENRE=Blues
TTITLE0=Hidden Charms
TTITLE1=The Seventh Son
TTITLE2=You Need Love (feat. Mud Morganfield)
TTITLE3=Track04Bring It On Home (feat. Billy Branch)
TTITLE4=Let Me Love You Baby (feat. Ronnie Baker Brooks)
TTITLE5=Pretty Thing
TTITLE6=Good Advice (feat. Billy Branch, Ronnie Baker Brooks, Mud Morg
TTITLE6=anfield)
TTITLE7=Crazy Mixed Up World
TTITLE8=The Same Thing (feat. Erica Brown)
TTITLE9=My Love Will Never Die (feat. Ronnie Baker Brooks)
TTITLE10=It Don’t Make Sense You Can’t Make Peace (feat. Billy Branch)
TTITLE11=I Want To Be Loved (feat. Mud Morganfield)
TTITLE12=Sittin’ And Cryin’ The Blues
EXTD=
EXTT0=
EXTT1=
EXTT2=
EXTT3=
EXTT4=
EXTT5=
EXTT6=
EXTT7=
EXTT8=
EXTT9=
EXTT10=
EXTT11=
EXTT12=
PLAYORDER=
